<?xml version="1.0" encoding="iso-8859-1"?>
<!-- Generator: Adobe Illustrator 19.0.0, SVG Export Plug-In . SVG Version: 6.00 Build 0)  -->
<svg version="1.1" id="Capa_1" xmlns="http://www.w3.org/2000/svg" xmlns:xlink="http://www.w3.org/1999/xlink" x="0px" y="0px"
	 viewBox="0 0 511.998 511.998" style="enable-background:new 0 0 511.998 511.998;" xml:space="preserve">
<g>
	<path style="fill:#F9F5F2;" d="M266.513,151.556c-1.596,0.879-3.328,1.493-5.12,1.809
		C263.193,153.041,264.917,152.435,266.513,151.556z"/>
	<path style="fill:#F9F5F2;" d="M221.867,435.2h68.266c18.824-0.06,34.073-15.309,34.133-34.133v-42.666H187.734v42.666
		C187.794,419.891,203.043,435.14,221.867,435.2z"/>
</g>
<path style="fill:#FDCA6E;" d="M472.402,437.93c-6.835-31.445-34.636-53.887-66.815-53.93h-81.321v17.066
	c-0.06,18.824-15.309,34.073-34.133,34.133h-68.266c-18.824-0.06-34.073-15.309-34.133-34.133V384h-81.321
	c-32.179,0.043-59.98,22.485-66.815,53.93l-13.994,65.535h460.792L472.402,437.93z"/>
<path style="fill:#A05D35;" d="M153.602,213.337v-42.666c0-9.429,7.637-17.066,17.066-17.066h87.892
	c0.947,0,1.894-0.085,2.824-0.239c1.792-0.316,3.524-0.93,5.12-1.809c4.07-2.295,7.1-6.076,8.448-10.556
	c5.99-19.387,24.797-31.871,44.987-29.866c22.246,2.765,38.835,21.853,38.459,44.27v57.932c18.85,0,34.133,15.283,34.133,34.133
	v-98.567c0-73.539-56.541-136.787-129.995-140.209c-75.314-3.61-139.296,54.519-142.905,129.832
	c-0.102,2.185-0.162,4.36-0.162,6.545v102.398C119.469,228.62,134.752,213.337,153.602,213.337z"/>
<g>
	<path style="fill:#F9F5F2;" d="M319.948,111.143c22.255,2.782,38.826,21.888,38.451,44.313v-0.051
		C358.774,132.997,342.194,113.908,319.948,111.143z"/>
	<path style="fill:#F9F5F2;" d="M119.469,247.469c0,18.85,15.283,34.133,34.133,34.133v-68.266
		C134.752,213.337,119.469,228.62,119.469,247.469z"/>
	<path style="fill:#F9F5F2;" d="M358.398,213.337v68.266c18.85,0,34.133-15.283,34.133-34.133S377.256,213.337,358.398,213.337z"/>
	<path style="fill:#F9F5F2;" d="M319.948,111.143c-20.19-2.005-38.997,10.479-44.987,29.866c-1.348,4.48-4.378,8.26-8.448,10.556
		c-1.596,0.879-3.328,1.493-5.12,1.809c-0.939,0.154-1.886,0.23-2.833,0.23h-87.892c-9.429,0-17.066,7.637-17.066,17.066v153.597
		c0,18.85,15.283,34.133,34.133,34.133h136.531c18.85,0,34.133-15.283,34.133-34.133V155.456
		C358.782,133.031,342.202,113.925,319.948,111.143z"/>
</g>
<g>
	<path style="fill:#231F20;" d="M480.747,436.113c-7.825-35.276-39.022-60.449-75.16-60.645h-72.788v-9.387
		c19.857-4.07,34.116-21.538,34.133-41.813v-34.986c19.848-4.079,34.107-21.546,34.133-41.813v-98.567
		C402.25,70.337,341.366,4.777,262.929,0.169c-80.024-3.831-148,57.94-151.823,137.965c-0.111,2.312-0.171,4.625-0.171,6.937
		v102.398c0.026,20.266,14.285,37.734,34.133,41.813v34.986c0.026,20.266,14.285,37.734,34.133,41.813v9.387h-72.788
		c-36.147,0.196-67.352,25.386-75.16,60.68l-13.994,65.535c-0.981,4.608,1.954,9.139,6.562,10.129
		c0.589,0.119,1.186,0.188,1.783,0.188h460.792c4.71,0,8.533-3.823,8.533-8.533c0-0.597-0.06-1.195-0.188-1.783L480.747,436.113z
		 M196.267,366.934h119.465v34.133c0,14.139-11.46,25.6-25.6,25.6h-68.266c-14.139,0-25.6-11.46-25.6-25.6V366.934z M366.931,271.61
		v-48.17c0.273,0.102,0.555,0.154,0.853,0.256c0.469,0.188,0.93,0.41,1.391,0.623c0.947,0.444,1.86,0.939,2.748,1.493
		c0.418,0.256,0.853,0.512,1.237,0.794c1.007,0.717,1.963,1.502,2.859,2.355c0.188,0.179,0.401,0.333,0.58,0.512
		c1.041,1.058,1.997,2.193,2.842,3.413c0.23,0.341,0.427,0.717,0.649,1.067c0.58,0.93,1.109,1.894,1.57,2.884
		c0.213,0.469,0.41,0.947,0.589,1.434c0.393,0.998,0.708,2.031,0.956,3.072c0.119,0.469,0.256,0.922,0.341,1.399
		c0.307,1.553,0.452,3.14,0.452,4.727C383.989,258.315,377.154,267.975,366.931,271.61z M128.002,145.071
		c0-70.689,57.3-127.998,127.998-127.998c2.048,0,4.096,0.051,6.135,0.145c69.315,4.215,123.023,62.25,121.862,131.684v64.434
		c-0.41-0.299-0.853-0.555-1.271-0.853s-0.725-0.495-1.101-0.742c-2.005-1.314-4.113-2.458-6.315-3.413
		c-0.316-0.137-0.649-0.247-0.981-0.375c-2.347-0.973-4.77-1.732-7.253-2.261l-0.145-0.034l0,0v-50.26
		c0.282-26.777-19.592-49.484-46.165-52.761c-24.2-2.312-46.702,12.638-53.955,35.839c-1.015,3.763-4.352,6.443-8.252,6.596h-87.892
		c-14.139,0-25.6,11.46-25.6,25.6v34.986l0,0h-0.119c-2.483,0.529-4.907,1.289-7.253,2.261c-0.333,0.128-0.666,0.239-0.981,0.375
		c-2.202,0.956-4.309,2.099-6.315,3.413c-0.375,0.247-0.742,0.486-1.101,0.742c-0.358,0.256-0.853,0.546-1.271,0.853
		L128.002,145.071z M128.002,247.469c0.009-1.579,0.171-3.157,0.478-4.702c0.085-0.478,0.222-0.93,0.341-1.399
		c0.256-1.05,0.572-2.074,0.956-3.08c0.188-0.478,0.375-0.956,0.589-1.417c0.461-0.998,0.981-1.963,1.57-2.893
		c0.222-0.35,0.418-0.725,0.649-1.067c0.845-1.22,1.801-2.355,2.842-3.413c0.179-0.179,0.393-0.333,0.58-0.512
		c0.896-0.853,1.852-1.638,2.859-2.355c0.401-0.282,0.853-0.538,1.237-0.794c0.887-0.555,1.801-1.05,2.748-1.493
		c0.461-0.213,0.922-0.435,1.391-0.623c0.265-0.102,0.555-0.154,0.853-0.256v48.17C134.863,268.009,128.01,258.332,128.002,247.469z
		 M162.135,324.268V170.671c0-4.71,3.823-8.533,8.533-8.533h87.892c11.4-0.111,21.393-7.671,24.584-18.619
		c4.855-15.471,19.874-25.437,36.019-23.893c17.869,2.389,31.095,17.817,30.719,35.839v168.804c0,14.14-11.46,25.6-25.6,25.6
		H187.734C173.603,349.868,162.135,338.408,162.135,324.268z M408.292,494.932l-7.347-44.074l-16.827,2.816l6.878,41.258h-269.99
		l6.878-41.258l-16.827-2.816l-7.347,44.074H36.151l11.784-55.193c6.084-27.46,30.353-47.052,58.478-47.206h72.788v8.533
		c0.026,23.552,19.114,42.64,42.666,42.666h68.266c23.552-0.026,42.64-19.114,42.666-42.666v-8.533h72.788
		c28.117,0.154,52.385,19.737,58.478,47.18l11.784,55.218H408.292z"/>
	<circle style="fill:#231F20;" cx="307.199" cy="221.861" r="17.066"/>
	<circle style="fill:#231F20;" cx="204.801" cy="221.861" r="17.066"/>
</g>
<g>
</g>
<g>
</g>
<g>
</g>
<g>
</g>
<g>
</g>
<g>
</g>
<g>
</g>
<g>
</g>
<g>
</g>
<g>
</g>
<g>
</g>
<g>
</g>
<g>
</g>
<g>
</g>
<g>
</g>
</svg>
