<svg id="Capa_1" enable-background="new 0 0 512.04 512.04" height="512" viewBox="0 0 512.04 512.04" width="512" xmlns="http://www.w3.org/2000/svg"><g><path d="m395.531 163.85v257.92h-327.7v-257.92c0-90.49 73.36-163.85 163.85-163.85h.01c45.25 0 86.2 18.34 115.85 47.99s47.99 70.61 47.99 115.86z" fill="#4c6999"/><path d="m395.531 163.85v257.92h-163.84v-421.77c45.25 0 86.2 18.34 115.85 47.99s47.99 70.61 47.99 115.86z" fill="#32446d"/><path d="m346.251 182.56v96.94c0 47.72-29.17 88.62-70.66 105.85v56.12h-87.82v-56.12c-41.48-17.23-70.66-58.13-70.66-105.85v-96.94h75.81c14.13 0 27.37-3.78 38.77-10.38 23.17-13.4 38.76-38.46 38.76-67.15v1.72c0 41.87 33.94 75.81 75.8 75.81z" fill="#eac3b7"/><path d="m439.481 480.15v31.89h-415.58v-31.89c0-38.02 30.93-68.95 68.95-68.95h277.68c38.02 0 68.95 30.93 68.95 68.95z" fill="#e27cc5"/><path d="m67.831 163.852v252.721h-55.522v21.664c0 32.454 26.309 58.763 58.763 58.763 32.454 0 58.763-26.309 58.763-58.763v-286.237z" fill="#4c6999"/><g fill="#71c1e6"><path d="m437.481 39.531h30v29h-30z"/><path d="m437.481 105.031h30v29h-30z"/><path d="m405.231 71.781h29v30h-29z"/><path d="m470.731 71.781h29v30h-29z"/></g><path d="m346.251 182.56v96.94c0 47.72-29.17 88.62-70.66 105.85v56.12h-43.9v-269.29c23.17-13.4 38.76-38.46 38.76-67.15v1.72c0 41.87 33.94 75.81 75.8 75.81z" fill="#ebae9c"/><path d="m439.481 480.15v31.89h-207.79v-100.84h138.84c38.02 0 68.95 30.93 68.95 68.95z" fill="#da5e93"/><path d="m275.761 300.69c0 24.2-19.68 43.89-43.88 43.89h-.19c-24.11-.1-43.7-19.75-43.7-43.89h30c0 7.6 6.13 13.79 13.7 13.88.06.01.13.01.19.01 7.65 0 13.88-6.23 13.88-13.89z" fill="#ebae9c"/><path d="m231.881 344.58h-.19v-30.01c.06.01.13.01.19.01 7.65 0 13.88-6.23 13.88-13.89h30c0 24.2-19.68 43.89-43.88 43.89z" fill="#d0857b"/></g></svg>